HIERARCHY
ROOT Hips
{
  OFFSET 3.31837 97.133 111.615
  CHANNELS 6 Xposition Yposition Zposition Zrotation Xrotation Yrotation
  JOINT RightUpLeg
  {
    OFFSET -8.9458 -8.66707 0.101652
    CHANNELS 3 Zrotation Xrotation Yrotation
    JOINT RightLeg
    {
      OFFSET 0 -44.4227 1.3727
      CHANNELS 3 Zrotation Xrotation Yrotation
      JOINT RightFoot
      {
        OFFSET 0.253549 -42.0924 -1.46059
        CHANNELS 3 Zrotation Xrotation Yrotation
        JOINT RightToes
        {
          OFFSET 0.04 -4.41509 8.4991
          CHANNELS 3 Zrotation Xrotation Yrotation
          End Site
          {
            OFFSET -0.08 -0.137448 9.77979
          }
        }
      }
    }
  }
  JOINT LeftUpLeg
  {
    OFFSET 8.9458 -8.66707 0.101652
    CHANNELS 3 Zrotation Xrotation Yrotation
    JOINT LeftLeg
    {
      OFFSET 0 -44.4227 1.3727
      CHANNELS 3 Zrotation Xrotation Yrotation
      JOINT LeftFoot
      {
        OFFSET -0.253549 -42.0924 -1.46059
        CHANNELS 3 Zrotation Xrotation Yrotation
        JOINT LeftToes
        {
          OFFSET -0.04 -4.41509 8.4991
          CHANNELS 3 Zrotation Xrotation Yrotation
          End Site
          {
            OFFSET 0.08 -0.047448 9.77979
          }
        }
      }
    }
  }
  JOINT Spine
  {
    OFFSET 0 11.8905 0
    CHANNELS 3 Zrotation Xrotation Yrotation
    JOINT Spine1
    {
      OFFSET 0 25.6574 0.127663
      CHANNELS 3 Zrotation Xrotation Yrotation
      JOINT HEad
      {
        OFFSET 0 8.73416 0.011341
        CHANNELS 3 Zrotation Xrotation Yrotation
        End Site
        {
          OFFSET -0.29 12.7742 2.51395
        }
      }
      JOINT LeftShoulder1
      {
        OFFSET 8.99 -0.362252 -0.22
        CHANNELS 3 Zrotation Xrotation Yrotation
        JOINT LeftArm
        {
          OFFSET 10.2827 -0.00338 0.322123
          CHANNELS 3 Zrotation Xrotation Yrotation
          JOINT LeftForeArm
          {
            OFFSET 32.7669 0.099144 -1.42434
            CHANNELS 3 Zrotation Xrotation Yrotation
            JOINT LeftHand
            {
              OFFSET 27.5643 0.085362 1.02216
              CHANNELS 3 Zrotation Xrotation Yrotation
              End Site
              {
                OFFSET 16.7443 -0.6 1.50291
              }
            }
          }
        }
      }
      JOINT RightShoulder
      {
        OFFSET -8.99 -0.362252 -0.22
        CHANNELS 3 Zrotation Xrotation Yrotation
        JOINT RightArm
        {
          OFFSET -10.2827 -0.00338 0.322123
          CHANNELS 3 Zrotation Xrotation Yrotation
          JOINT RightForeArm
          {
            OFFSET -32.8971 0.099144 -1.42434
            CHANNELS 3 Zrotation Xrotation Yrotation
            JOINT RightHand
            {
              OFFSET -27.4921 0.085362 1.02216
              CHANNELS 3 Zrotation Xrotation Yrotation
              End Site
              {
                OFFSET -16.6312 -0.6 1.50291
              }
            }
          }
        }
      }
    }
  }
}
MOTION
Frames:	20
Frame Time:	0.0166667
-0.581543 93.1539 99.8428 5.60089 8.99137 160.404 -14.0585 -9.20994 -2.96606 18.773 41.5482 -26.2653 -10.9222 0.408996 0.653972 -31.9411 -41.725 -15.5962 17.8191 -25.8019 -1.68991 -4.45399 73.6431 6.01748 -10.1121 -3.48299 0.376131 2.27006 -2.6829 3.74191 1.0682 8.66159 0.435142 3.34443 17.3141 0.376214 -3.59333 -0.954941 -0.893466 0 1.59028e-015 -0 -73.5009 -21.9055 -14.9756 -1.93722 35.3454 -110.954 30.1474 5.70204 -11.704 18.6758 3.82358 15.6689 70.0978 -34.99 39.2738 -10.7924 48.0757 143.131 -23.0233 16.6334 -38.3714 
-0.570215 93.3621 99.1391 5.42443 8.81104 159.191 -14.0123 -9.12703 -3.28647 17.022 41.3447 -24.2753 -10.3932 1.34592 0.707215 -33.0595 -42.8501 -15.8145 17.5791 -26.2147 -1.90455 -3.46665 70.2651 6.37164 -10.1476 -7.2857 0.0616725 -0.665341 0.949783 4.00676 1.10329 8.63891 0.427292 3.0429 17.2237 0.52125 -4.04555 -0.760912 0.307512 -1.59028e-015 -1.59028e-015 3.18055e-015 -72.1579 -22.6084 -14.0505 -4.06423 36.046 -109.176 28.7667 5.544 -13.137 18.4034 3.92428 16.3503 70.2812 -35.2168 39.5989 -10.4658 48.9045 142.329 -23.4779 16.6037 -37.5713 
-0.622738 93.6443 98.3387 5.42809 8.34992 158.032 -13.8705 -8.83949 -3.37677 15.6808 40.2483 -22.9185 -10.0012 3.11382 0.841367 -35.0849 -44.5089 -16.8538 17.6363 -26.2256 -2.41697 -3.12734 65.34 6.20754 -8.87173 -7.49185 0.0426239 -0.417774 0.606579 2.29582 1.16437 8.61356 0.657024 3.05818 17.138 1.06051 -4.21935 -0.723597 0.536085 -1.59028e-015 0 -0 -70.92 -23.2686 -14.0099 -5.69103 37.0551 -107.766 27.9316 5.51359 -13.8083 18.1619 3.80166 15.9569 70.4843 -35.1074 40.1249 -10.0506 49.6228 141.583 -23.9084 16.5282 -36.6185 
-0.730289 93.9987 97.5767 5.51888 7.69336 156.253 -13.5015 -8.98207 -2.90509 14.7649 39.3573 -20.7364 -10.0244 2.79501 0.813718 -33.845 -43.5331 -16.1579 18.0049 -25.7647 -2.06584 -2.55739 59.5151 3.90893 -8.04064 -6.0941 0.131793 1.3841 -1.48689 5.38446 1.08551 8.4411 0.970712 2.88531 16.7572 1.75909 -4.43319 -0.59767 1.43843 1.76556e-031 3.18055e-015 -3.18055e-015 -68.6378 -24.5216 -13.5456 -7.12853 37.7726 -106.586 27.0874 5.52219 -14.3643 18.5845 3.93424 16.2559 69.8667 -35.2962 40.3036 -9.35875 50.2512 140.368 -24.5341 16.4317 -35.3482 
-1.0402 94.3775 96.7734 5.52817 7.00217 154.521 -13.191 -9.01794 -3.09485 12.9826 38.1178 -18.0424 -10.0992 3.81234 0.916478 -34.3614 -44.0293 -16.2826 17.6053 -24.9447 -2.11978 -0.186931 53.0868 1.66098 -9.35577 -7.74142 0.0242577 0.465722 -0.442124 3.97873 1.14486 8.28795 0.936973 2.95816 16.4177 1.73026 -5.42644 -0.908973 3.08409 7.95139e-016 6.36111e-015 -6.36111e-015 -65.8631 -26.6018 -12.6088 -8.39926 37.9062 -105.744 25.9254 5.57899 -14.9915 17.8901 3.93133 16.7957 70.7256 -35.1944 41.2726 -8.8249 51.5852 139.042 -25.3391 16.3765 -34.1058 
-1.25378 94.7956 95.9739 5.46477 6.15309 152.942 -12.7213 -9.42611 -2.93391 11.7061 37.4051 -15.0163 -10.0627 1.87051 0.730333 -30.6194 -40.6648 -14.7337 17.4961 -23.942 -2.4487 0.37837 46.2982 -1.13484 -10.207 -10.865 -0.239745 -1.68969 2.19728 6.05604 1.33567 8.07157 1.09491 2.87797 15.9752 2.15222 -5.60575 -1.22979 3.886 3.18055e-015 1.59028e-015 3.18055e-015 -62.6072 -28.9198 -12.4452 -9.86792 38.6973 -104.436 24.885 5.68782 -15.3373 17.7036 3.87848 16.693 70.9954 -35.0295 42.0039 -8.29713 52.4116 138.131 -26.0869 16.383 -33.2658 
-1.54402 95.1386 95.0875 5.62562 5.44776 151.126 -11.8622 -9.2892 -3.40796 8.77747 35.9828 -12.1195 -8.43881 3.96622 0.761444 -32.3593 -42.8352 -14.3156 17.1106 -22.223 -2.06331 2.49113 38.8438 -4.17701 -11.3969 -12.5718 -0.436852 -2.41423 3.03882 6.86069 1.49577 7.86552 1.10175 3.01567 15.5688 2.18468 -6.05 -1.13262 5.592 3.18055e-015 0 -3.18055e-015 -58.4556 -32.0089 -11.4463 -11.7495 39.2089 -102.817 23.2231 5.83167 -16.0963 17.1694 3.85115 17.0064 71.4364 -34.7215 42.6328 -7.93944 53.3157 137.341 -26.8714 16.4269 -32.5884 
-1.91384 95.4807 94.0835 4.93246 4.55472 148.563 -11.6593 -10.3746 -3.78373 5.59677 35.3741 -7.88227 -6.49684 4.05851 0.569447 -31.2698 -42.6732 -12.1978 16.3102 -20.4773 -0.940872 3.90636 31.5018 -6.33207 -13.2646 -16.0639 -0.914673 -4.72418 5.71222 7.15777 1.4295 7.53427 1.20194 2.45393 14.9128 2.45866 -6.18984 -1.49893 7.66839 7.95139e-016 3.18055e-015 -6.36111e-015 -53.6304 -36.0388 -10.1911 -13.8576 39.9283 -100.739 21.5334 6.0337 -16.6887 16.6044 3.87431 17.6196 72.1866 -34.3333 43.6831 -7.73302 54.1521 136.548 -27.6058 16.4667 -31.9823 
-2.25958 95.712 92.977 4.94025 3.71395 145.93 -11.0687 -10.7584 -3.38319 3.81344 34.1485 -4.82427 -6.12326 4.52658 0.559033 -30.9821 -42.4238 -12.0285 16.4029 -18.2679 0.0883209 4.68511 24.7986 -8.56717 -16.6894 -20.5429 -1.83207 -8.10511 9.53605 7.81196 1.57645 7.23891 1.2784 2.49107 14.3615 2.59756 -6.38326 -1.4682 9.91744 -7.95139e-016 1.59028e-015 6.36111e-015 -48.0482 -40.6004 -8.32547 -16.5217 40.8107 -97.6598 19.747 6.23864 -17.4691 15.7398 3.84124 18.2564 72.899 -33.8978 44.4831 -7.68983 54.7723 135.897 -28.1625 16.5002 -31.5561 
-2.54503 95.961 91.8335 4.56217 3.09561 143.341 -10.8399 -11.1883 -3.49049 1.48946 33.0335 -1.02821 -4.67368 4.48064 0.402512 -30.5178 -42.2314 -11.3345 16.1267 -17.2599 -0.195889 3.59105 20.9317 -14.0615 -12.0775 -17.0379 -0.925422 -5.75549 6.46935 12.3754 0.948761 7.02125 1.38384 2.14544 13.8231 2.80417 -6.85398 -1.53977 12.1846 7.95139e-016 1.59028e-015 6.36111e-015 -41.7824 -45.4041 -6.24973 -19.0426 41.7427 -93.8768 18.5542 6.42408 -17.771 15.1657 3.79297 18.5645 73.4282 -33.2099 45.2799 -7.70295 55.1281 135.402 -28.5385 16.5378 -31.3368 
-2.90253 95.9558 90.585 4.69725 2.4451 140.903 -10.3537 -11.3077 -3.53943 -0.355339 31.7102 0.972301 -3.85129 6.75504 0.405957 -33.0543 -44.9785 -11.7655 15.4503 -16.1289 0.366429 5.37943 19.1651 -20.9423 -12.6496 -11.9649 -0.42703 -5.324 6.03898 12.0171 0.723342 6.83397 1.1918 2.20207 13.4058 2.38214 -6.89934 -1.69438 14.5232 1.59028e-015 -3.18055e-015 -0 -34.397 -50.5022 -2.91876 -21.2129 42.2865 -89.3468 17.909 6.54724 -17.8031 14.5166 3.82656 19.4302 73.8782 -32.6108 46.3294 -7.56473 55.5793 134.501 -28.9722 16.5563 -30.9927 
-3.45995 95.7787 89.3768 5.24888 1.61808 137.861 -9.33126 -12.0787 -2.66182 -1.92144 31.8547 4.47522 -2.80375 4.63979 0.209292 -29.9696 -42.3113 -9.89857 15.0954 -15.3795 2.12534 7.86413 19.4016 -22.3038 -10.7792 -7.54563 0.0406161 -2.86006 3.58391 6.02061 0.713805 6.57274 1.18866 2.29042 12.8957 2.33489 -6.86202 -1.94764 17.2778 7.95139e-016 1.59028e-015 -3.18055e-015 -26.0767 -54.9647 1.00112 -22.6036 42.4041 -84.0778 18.1278 6.58599 -17.282 14.4373 4.00355 20.5152 73.5823 -32.3267 46.9985 -7.23939 55.8901 133.513 -29.3584 16.5728 -30.6947 
-3.84997 95.48 88.3091 5.76109 1.30027 136.077 -8.88008 -12.4899 -2.2699 -3.08837 32.6624 6.33748 -1.12404 3.21462 0.00604883 -28.4298 -41.4492 -7.86328 14.6888 -15.3889 1.31406 9.02284 20.8097 -17.4498 -10.3803 -3.00032 0.426914 2.82249 -3.46693 2.68258 0.847165 6.66807 1.30456 2.53342 13.0667 2.56194 -7.2112 -2.57625 17.6765 1.59028e-015 -3.18055e-015 3.18055e-015 -21.7138 -59.193 0.31765 -23.1237 42.5986 -77.6875 19.6159 6.54711 -15.8172 13.248 3.5342 19.1384 74.7032 -31.5399 48.2428 -7.31641 56.2801 133.636 -29.278 16.6696 -31.144 
-4.17465 95.308 87.5212 6.26667 1.40346 133.923 -8.35572 -12.6163 -2.16546 -4.89502 32.9263 8.80457 -0.341849 3.09054 -0.0693092 -28.2316 -41.5063 -7.26102 15.876 -15.8023 -0.827755 6.62125 24.9668 -13.2537 -11.7939 -5.43051 0.248467 1.60452 -2.03015 1.26926 0.14918 6.81897 0.315185 2.00076 13.2834 0.510785 -6.32526 -4.1055 22.2275 -3.18055e-015 0 9.54166e-015 -13.93 -56.1746 3.6911 -19.7536 34.9082 -74.6214 21.1527 6.75801 -13.1532 13.3078 4.06723 22.2595 75.4767 -31.5243 50.4334 -6.70986 57.4328 131.577 -29.7808 16.6147 -30.4678 
-4.53622 95.007 86.7669 6.61442 1.13346 131.355 -7.49059 -13.388 -1.62606 -6.85534 33.2272 11.1832 0.0589825 4.32617 -0.0994858 -29.7143 -42.8245 -8.31763 16.8874 -15.9549 3.51048 7.49702 26.6442 -14.3355 -12.5855 -2.54539 0.565034 5.64444 -7.67342 -1.19855 0.0011333 6.88428 0.686944 1.71046 13.4578 1.22669 -5.68954 -4.71318 22.5271 1.76556e-031 -3.18055e-015 3.18055e-015 -13.897 -51.1559 -2.0206 -15.8543 26.8598 -69.9763 23.6364 7.04472 -9.84115 12.7882 3.85328 21.6424 76.3503 -31.2101 51.6774 -6.89058 57.6898 131.71 -29.3291 16.6754 -31.1183 
-4.76254 94.7046 86.0254 6.90684 0.521984 129.533 -6.35715 -14.4063 -2.18759 -9.66109 34.2824 15.1922 2.29955 1.17644 -0.291252 -26.1407 -39.8865 -5.05583 19.5592 -16.3447 4.10385 3.28295 28.8644 -10.1303 -10.6239 -0.440481 0.658837 9.06917 -12.9628 -3.68495 0.150225 6.71103 0.56694 1.52744 13.1417 1.01464 -5.14677 -4.93668 23.8568 1.59028e-015 2.38542e-015 3.18055e-015 -11.7719 -45.4342 -4.87546 -11.4005 20.2871 -65.5424 25.8791 7.47246 -6.64368 12.8899 3.99514 22.3758 76.5613 -31.0853 52.2337 -7.29246 57.5794 131.682 -28.7882 16.6906 -31.6965 
-4.93429 94.5586 85.4168 6.97336 -0.198609 128.497 -5.91396 -15.117 -2.81099 -10.0668 34.095 14.3958 1.9748 3.42853 -0.290084 -28.4216 -42.9541 -4.99376 21.4742 -16.7512 4.74561 0.436066 30.4503 -8.77003 -8.83206 -1.76044 0.45147 8.5667 -12.2104 -3.52144 -0.0448714 6.49038 -0.204949 1.31789 12.6831 -0.554699 -4.62068 -5.72754 27.3133 -0 -7.95139e-016 -0 -7.93266 -41.3353 -4.13439 -6.90301 17.4998 -62.4562 27.6075 8.19503 -2.88585 13.2315 4.50103 24.9379 76.8421 -30.8677 53.0503 -7.8974 57.3638 131.054 -28.4588 16.656 -31.8845 
-5.02632 94.5901 84.8263 6.9648 -0.748969 128.373 -6.25658 -15.5378 -2.7052 -8.39065 34.6919 13.1521 2.37367 2.91488 -0.321431 -27.3022 -41.5436 -4.85514 21.9707 -17.3128 6.81501 1.09778 31.674 -11.3674 -8.89396 -4.05415 0.290312 6.7706 -9.48632 -2.61133 0.0397162 6.28213 -0.0412513 1.49741 12.2422 -0.227546 -5.42642 -5.94767 26.752 -3.18055e-015 -7.95139e-016 -0 -8.54119 -37.6379 -8.61613 -3.20261 16.7418 -60.0423 28.6494 9.2496 1.67559 13.4074 4.35967 23.8568 75.9365 -30.1513 51.9947 -9.04893 55.788 132.559 -27.4293 16.737 -33.278 
-5.25213 94.7107 84.3765 7.26818 -1.38764 128.753 -6.94128 -15.6418 -2.11767 -4.87823 35.4145 9.91867 1.58638 0.468848 -0.231089 -23.7207 -37.6234 -2.84746 21.6293 -17.7564 7.99673 3.52986 31.4355 -12.9345 -8.92152 -2.04976 0.43534 8.85342 -12.7245 -3.93283 0.331089 6.16159 -0.242747 1.81837 11.9941 -0.611694 -6.25831 -5.49614 26.7322 -3.18055e-015 3.18055e-015 -1.27222e-014 -9.05636 -35.6385 -11.3663 -0.988491 16.8869 -58.7867 28.9144 10.2003 5.54303 13.1368 4.33227 24.07 76.0331 -29.7641 51.486 -10.1967 54.6579 133.631 -26.6889 16.781 -34.2817 
-5.4124 94.8112 84.0448 7.27979 -1.6388 129.421 -8.41647 -15.3525 -1.41841 -0.792312 35.34 6.63951 1.31315 -0.804733 -0.205464 -22.0699 -35.1369 -3.14465 21.3568 -18.1691 5.8563 2.6922 31.3337 -10.6996 -8.57186 -0.751237 0.507274 10.1518 -14.7074 -4.39712 0.176662 6.0323 0.0921799 1.63438 11.771 0.0725781 -6.40382 -5.1022 25.1648 -3.18055e-015 0 9.54166e-015 -11.4231 -34.0795 -16.3914 -0.101766 16.3291 -57.7009 29.0811 10.815 8.0089 13.9021 4.38896 23.3629 74.8542 -29.953 50.2016 -10.9897 53.0998 135.088 -25.8731 16.8046 -35.3425 
